<?xml version="1.0" encoding="UTF-8"?><svg id="a" xmlns="http://www.w3.org/2000/svg" viewBox="0 0 652.14 651.59"><defs><style>.b{fill:#ebd728;}.c{fill:#fefefe;}.d{fill:#a57b17;}</style></defs><path class="d" d="M650.73,312.58c1.55,7.06,1.57,14.12-.01,21.18,.01-7.06,.01-14.12,.01-21.18Z"/><path class="d" d="M648.6,361.6c-.86,18.02-3.51,35.67-10.92,52.32,.82-14,2.97-27.9,3.19-41.96,.16-9.76,.62-19.53,.96-29.29,.05-1.44-.28-3.35,1.71-3.61,2.06-.26,2.27,1.73,2.45,3.1,.66,5.07,1.15,10.15,1.69,15.23,.15,1.44-.4,3.03,.92,4.21Z"/><path class="d" d="M615.41,395.35c2.01-1.23,2.92-2.84,3.38-5.05,1.31-6.31,4.29-11.75,8.99-16.22,1.46-1.39,2.83-3.08,5.13-2.18,2.35,.92,2.43,3.05,2.88,5.28,2.49,12.36,2.08,24.67,.08,37.01-.14,.83-.02,1.67,.85,2.15-3.62,21.09-10.74,40.66-24.99,57.11,2.21-9.34,1.22-19.1,.34-28.16-1.41-14.48,1.45-29.07-2.12-43.45-1.53-6.12,.67-12.38,3.48-19.46,.46,5.05,.61,8.92,1.98,12.97Z"/><path class="b" d="M577.51,276.98c-.73,.97-1.5,1.95-2.85,1.29-.78-.38-.86-1.04-.81-1.74,.02-.2,.05-.41,.07-.61,.02-.1,.03-.2,.04-.3,.91-3.51,1.91-6.99,3.04-10.42,2.47-7.55,5.52-14.87,9.47-21.83,.4-.71,1.06-1.3,1.68-1.84,.83-.73,1.57-2.18,2.85-1.46,1.49,.83,.81,2.36,.33,3.55-2.72,6.77-5.06,13.74-8.4,20.19-2.22,4.29-2.45,9.28-5.42,13.17Z"/><path class="d" d="M548.16,352.67c-.35-1.69-2.22-4.9,2.48-4.61,1.62,.11,.99-2.15,1.06-3.36,.25-4.29-.42-8.66,1.43-12.79,2.79-6.24,9.37-9.44,14.78-2.6,1.85,2.34,3.85,4.56,5.77,6.84,8.52,10.11,17.61,7.61,24.96-1.39,1.66-2.04,2.77-4.53,4.34-6.66,.71-.97,1.66-2.64,3.12-1.79,1.28,.75,1.72,2.34,1.2,4-1.2,3.78-2.05,7.64-3.43,11.4-3.95,10.7-8.07,21.31-14.34,30.88-2.11,3.23-6.26,4.92-7.53,9.39,3.31,.71,4.42-2.93,7.99-3.19-3.34,6.02-7.18,10.67-12.77,13.33-5.47,2.62-13.08-2.6-16.42-7.68-6.37-9.68-10.25-20.47-12.64-31.77Z"/><path class="b" d="M571.37,204.66c-8.54,16.6-17.07,33.19-25.61,49.79-.09-2.74,.5-5.24,1.43-7.6,.15-.37,.3-.73,.46-1.09,1.44-3.27,3.44-6.32,5.05-9.47,5.58-10.88,10.27-22.29,18.67-31.63Z"/><path class="b" d="M545.76,254.45c0,.06,.01,.12,.01,.19h-.01v-.19Z"/><path class="c" d="M545.7,254.58s.04-.07,.06-.11v.17l-.06-.06Z"/><path class="c" d="M545.76,254.64s-.05,.03-.08,.06c0-.04,.01-.08,.02-.12l.06,.06Z"/><path class="c" d="M545.67,254.7c-.2,.84,.13,1.88-.93,2.38-.07,.03-.35-.13-.37-.23-.18-1.1,.53-1.65,1.3-2.15Z"/><polygon class="c" points="543.27 260.35 543.36 260.74 543.11 260.72 543.27 260.35"/><path class="c" d="M505.56,162.15c.15-.09,.47,.14,.73,.24-.13,.25-.21,.59-.41,.71-.15,.08-.47-.15-.71-.24,.13-.25,.19-.6,.39-.71Z"/><path class="b" d="M500.81,52.66s-.01,.05-.02,.07c-.01-.01-.03-.01-.04-.01l.06-.06Z"/><path class="b" d="M500.81,52.66l-.06,.06s-.04-.05-.07-.07c.04,0,.08,.01,.13,.01Z"/><path class="b" d="M499.84,51.75l.84,.9c-.53-.07-.83-.35-.84-.9Z"/><path class="b" d="M499.83,51.61c0,.05,0,.1,.01,.14l-.08-.08,.07-.06Z"/><path class="b" d="M499.83,51.61l-.07,.06-.33-.12c.13,.02,.27,.04,.4,.06Z"/><path class="b" d="M519.6,175.42c-8.32,15.5-19.2,29.51-27.08,45.36,4.39-17.79,16.56-31.09,27.08-45.36Z"/><path class="b" d="M422.94,74.64c6.64,2.71,9.96,8.52,13.71,13.82,7.07,9.96,13.69,20.24,20.76,30.2,4.56,6.42,11.64,8.6,18.97,9.94,2.91,.53,7.52-.91,7.94,2.85,.42,3.74-4.15,4.37-7.24,5.35-2.22,.7-4.22,1.62-6.15,3.07-5.95,4.47-15.08,4.9-18.54-5.4-5.21-15.51-11.26-30.78-19.74-44.91-3.05-5.08-6.46-9.95-9.71-14.92Z"/><path class="d" d="M428.78,424.59c6.36-9.01,10.49-19.06,14.19-29.4,3.53-9.86,6.55-19.82,8.26-30.16,1.16-7.02,2.48-14.02,3.56-21.06,.57-3.7,.19-7.66,4.34-9.85,1.04-.55,.67-2.14,.65-3.29-.07-6.13,2.01-11.1,7.03-14.95,3.1-2.39,2.06-6.8,3.87-9.95,.61-1.06,.27-3.01,2.13-2.66,1.49,.28,.89,1.95,.9,3.01,.18,16.78-1.76,33.4-3.5,50.05-1.17,11.12-3.76,21.87-6.34,32.65-2.06,8.62-3.55,17.63-8.89,24.94-3.6,4.91-6.13,11.1-12.36,13.64-3.23,1.32-6.7,2.27-9.67-.74-2.38-2.42-2.73,1.28-4.27,1.42-1.34-1.34,.47-2.46,.12-3.66-.01,0-.01,0-.02,0Z"/><path class="b" d="M503.69,165.05c-11.41,15.98-25.42,30.08-34.1,48.02,6.81-19.28,21.09-33.19,34.1-48.02Z"/><path class="c" d="M468.51,214.58c.1,2.74-.36,3.91-1.27,5.15-.72-1.8,.31-2.96,1.27-5.15Z"/><path class="b" d="M480.25,100.81c-13.77-4.15-24.03-13.46-33.83-23.44,10.95,8.3,21.82,16.71,33.83,23.44Z"/><path class="b" d="M459.51,54.91c.71-1.14,1.93-1.14,3.58-1.13,.34,.06,1.42-.08,1.92,.39,5.32,4.99,12.53,7.43,17.45,12.92,1.07,1.2,2.43,2.55,1.57,4.34-.88,1.85-2.69,2.1-4.63,2.22-3.36,.19-5.61-1.78-7.77-3.77-4.02-3.69-7.79-7.62-11.03-12.04-.65-.88-1.95-1.55-1.09-2.93Z"/><path class="d" d="M457.63,331.17c-.17,.2-.34,.38-.51,.56-.05-.31-.14-.62-.14-.93-.01-.12,.18-.24,.29-.36,.13,.26,.25,.52,.36,.73Z"/><path class="b" d="M456.29,460.44c.26,2.3-.18,3.4-1.97,3.88-.54-1.7,.26-2.64,1.97-3.88Z"/><polygon class="b" points="453.29 465.87 453.38 466.14 453.13 466.11 453.29 465.87"/><path class="d" d="M428.8,424.58l-.04,.04s.01-.02,.02-.03c.01,0,.01,0,.02,0Z"/><path class="d" d="M428.76,424.6s.01,0,.02-.01c0,.01,0,.02-.02,.03v-.02Z"/><path class="d" d="M425.79,431.58c.11-.74,.09-1.59,1.2-1.55,.11,.01,.3,.21,.31,.32,.06,1.09-.75,1.14-1.51,1.23Z"/><polygon class="d" points="425.79 431.58 425.79 431.59 425.78 431.58 425.79 431.58"/><path class="b" d="M388.84,85.76c1.89-.02,2.9,1.48,4.01,2.67,7.34,7.89,12,17.2,16.1,27.18,4.66,11.33,6.16,22.96,7.33,35.76-2.74,9.66-2.62,20.98-9.4,30.29-1.44,1.97-2.64,3.82-5.62,2.38-3-1.44-3.85-3.42-2.4-6.37,2.66-5.46,4.4-11.37,5.84-17.11,3.62-14.35,2.84-28.78-2.1-42.95-3.69-10.58-9.22-20.1-15.53-29.24-.47-.67-1.28-1.42-.56-2.12,.49-.47,1.53-.49,2.33-.49Z"/><path class="b" d="M407.12,531.4c.97-5.14,3.89-8.65,6.12-12.44,6.7-11.37,13.54-22.66,20.45-33.9,1.88-3.06,4.04-5.93,7.65-7.44,2.97-1.24,5.09-3.84,6.85-6.41,2.33-3.38,2.92-4.1,6.32-.15,4.39,5.09,6.28,10.14,5.07,16.29-1.23,6.28-4.59,11.68-8.71,16.56-2.14,2.53-4.04,5.42-6.63,7.4-11.1,8.5-22.32,16.9-37.12,20.09Z"/><path class="d" d="M396.8,405.56v.05l-.02-.03,.02-.02Z"/><path class="d" d="M396.78,405.58l.02,.03c-.08,.13-.17,.26-.25,.39,.08-.14,.15-.28,.23-.42Z"/><path class="b" d="M392.22,231.7c6.67-3.5,12.01-8.81,19.25-11.58,6.65-2.54,12.7-7.04,15.28-14.63,2.44-7.18,5.39-14.16,10.48-19.96,.94-1.07,2.03-2.52,3.77-1.56,1.42,.79,.92,2.37,.9,3.63-.1,5.38-1.87,10.47-3.68,15.36-2.77,7.51-5.76,14.93-8.02,22.63-1.29,4.4-5.18,5.21-8.42,3.7-7.13-3.32-13.77-.51-20.32,1.02-2.99,.7-6.07,.81-9.24,1.39Z"/><path class="b" d="M384.76,301.84c-3.71,.78-5.44-2.93-8.05-4.91-1.36-1.03-.78-2.33,.86-2.94,2.6-.97,11.03,1.2,12.64,3.23,.7,.88,.81,1.86,.34,2.77-1.16,2.23-3.36,1.65-5.79,1.85Z"/><path class="b" d="M375.52,322.6c-2.86-.44-7.22,.7-7.76-4.14-.27-2.46,6.76-8.05,9.92-7.91,3.75,.16,4.38,2.88,4.28,5.97-.01,4.21-2.26,6.71-6.44,6.08Z"/><path class="b" d="M370.77,89.33c19.77,11.59,18.72,60.04-1.42,76.74,7.2-11.84,12.09-24.44,12.39-38.38,.29-13.8-3.8-26.52-10.97-38.36Z"/><path class="d" d="M278.28,70.81c8.36-2.8,16.84-4.81,22-4.31,24.51,.43,42.78,6.64,57.09,22.32,4.99,5.46,8.98,11.42,9.73,19.12,.15,1.56-.13,2.89-.26,4.34-.16,1.83-.89,3.38-2.58,3.92-1.73,.56-2.63-1.18-3.56-2.23-3.82-4.35-7.39-8.92-11.29-13.19-8.45-9.25-19.01-15.24-30.83-18.99-12.04-3.82-24.6-4.73-37.05-6.19-1.14-.13-2.26-.46-3.37-.75-.95-.26-2.09-.43-2.08-1.74,0-1.37,.98-1.9,2.2-2.3Z"/><path class="d" d="M339.65,.25c-.01,.14-.01,.28-.01,.41h-29.51c0-.13,0-.27,0-.41h29.51Z"/><path class="b" d="M338.3,116.3c7.62,8.82,7.14,25.35-.91,34.76,1.16-5.77,3.21-11.36,3.56-17.29,.37-6.04-1.78-11.64-2.65-17.47Z"/><path class="b" d="M298.06,119.49c-.33-2.71,2-5.13,5.7-4.43,5.46,1.04,9.08,4.71,9.11,9.43,.03,4.48-3.78,9.94-7.99,11.68-3.45,1.43-5.21-.36-5.81-3.32-.88-4.37-.45-8.9-1.01-13.36Z"/><path class="b" d="M239.56,43.41c-1.18,.51-3.37,1-4.02-.59-.71-1.73,1.42-1.68,2.48-2.29,8.52-4.9,17.51-8.09,28.3-7.73,2.5,.14,5.86-.6,9.06,.72,.98,.41,2.79-.26,2.81,1.33,.03,1.68-1.51,2.5-3.07,2.67-3.27,.35-6.58-.04-9.85,.97-8.37,2.58-17.48,1.36-25.71,4.92Z"/><path class="d" d="M168.16,170.05c1.31,2.62-1.65,4.69-.59,7.32,1.79-.89,2.52-2.46,3.3-4.06,2.43-5.02,7.13-7.67,11.41-10.74,1.64-1.18,2.78-.4,3.57,1.2,3.63,7.31,11.83,8.86,17.45,13.77,9.94,8.68,22.3,5.8,33.83,4.98,8.19-.59,16.49-.88,24.62-2.73,4.2-.96,8.09,1.33,11.94,2.82,1.33,.51,2.78,1.95,1.87,2.98-2.59,2.91-3,7.55-7.26,9.11-1.71,.63-3.83,1.09-4.9,2.35-5.49,6.47-13.06,9.26-20.4,12.79-5.3,2.54-10.94,3.68-16.28,5.86-.6,.24-1.33,.24-1.26,1.57,7.78-.07,14.5-6.37,22.83-3.63-1.39,2.11-3.96,2.81-6.22,3.61-12.49,4.39-24.89,8.88-38.14,10.9-19.1,2.92-37.43-10.12-40-29.29-1.42-10.63,.22-22.09,4.23-28.81Z"/><path class="b" d="M161.96,71.65q-2.37,4.17-5.97,4.49c1.26-2.2,2.75-3.66,5.97-4.49Z"/><path class="b" d="M126.43,182.54c1.13-1.35,3.05-3.6,4.39-2.47,3.86,3.27,10.43-2.78,12.99,4.21,1.62,4.44,.51,9.13,1.82,13.6,1.9,6.43,1.57,13.33,4.04,19.7,1.03,2.65-.23,4.6-3.11,5.04-2.78,.42-5.09,1.44-6.56,3.95-1.84,3.16-3.25,2.17-5.12-.19-7.74-9.74-9.93-20.93-8.89-33.65,0-1.99-.04-4.65,.01-7.31,.02-.98-.1-2.24,.43-2.88Z"/><path class="b" d="M574.66,278.27c1.35,.66,2.12-.32,2.85-1.29,2.97-3.89,3.2-8.88,5.42-13.17,3.34-6.45,5.68-13.42,8.4-20.19,.48-1.19,1.16-2.72-.33-3.55-1.28-.72-2.02,.73-2.85,1.46-.62,.54-1.28,1.13-1.68,1.84-3.95,6.96-7,14.28-9.47,21.83-1.13,3.43-2.14,6.91-3.05,10.42l-.03,.3c-.03,.2-.05,.4-.07,.61-.05,.7,.03,1.36,.81,1.74Zm-26.5,74.4c2.39,11.3,6.27,22.09,12.64,31.77,3.34,5.08,10.95,10.3,16.42,7.68,5.59-2.66,9.43-7.31,12.77-13.33-3.57,.26-4.68,3.9-7.99,3.19,1.27-4.47,5.42-6.16,7.53-9.39,6.27-9.57,10.39-20.18,14.34-30.88,1.38-3.76,2.23-7.62,3.43-11.4,.52-1.66,.08-3.25-1.2-4-1.46-.85-2.41,.82-3.12,1.79-1.57,2.13-2.68,4.62-4.34,6.66-7.35,9-16.44,11.5-24.96,1.39-1.92-2.28-3.92-4.5-5.77-6.84-5.41-6.84-11.99-3.64-14.78,2.6-1.85,4.13-1.18,8.5-1.43,12.79-.07,1.21,.56,3.47-1.06,3.36-4.7-.29-2.83,2.92-2.48,4.61Zm-2.49-97.97c-.77,.5-1.48,1.05-1.3,2.15,.02,.1,.3,.26,.37,.23,1.06-.5,.73-1.54,.93-2.38Zm.01,0s.05-.04,.08-.06h.01c0-.07-.01-.13-.01-.19,8.54-16.6,17.07-33.19,25.61-49.79-8.4,9.34-13.09,20.75-18.67,31.63-1.61,3.15-3.61,6.2-5.05,9.47-.16,.36-.31,.72-.46,1.09-.93,2.36-1.52,4.86-1.43,7.6v.02s-.04,.07-.06,.11c0,.04-.02,.08-.02,.12Zm-40.51-91.84c.24,.09,.56,.32,.71,.24,.2-.12,.28-.46,.41-.71-.26-.1-.58-.33-.73-.24-.2,.11-.26,.46-.39,.71Zm-35.58,50.21c8.68-17.94,22.69-32.04,34.1-48.02-13.01,14.83-27.29,28.74-34.1,48.02Zm-8.99-155.23c3.24,4.42,7.01,8.35,11.03,12.04,2.16,1.99,4.41,3.96,7.77,3.77,1.94-.12,3.75-.37,4.63-2.22,.86-1.79-.5-3.14-1.57-4.34-4.92-5.49-12.13-7.93-17.45-12.92-.5-.47-1.58-.33-1.92-.39-1.65,0-2.87,0-3.58,1.13-.86,1.38,.44,2.05,1.09,2.93Zm7.91,156.74c-.96,2.19-1.99,3.35-1.27,5.15,.91-1.24,1.37-2.41,1.27-5.15Zm-22.09-137.21c9.8,9.98,20.06,19.29,33.83,23.44-12.01-6.73-22.88-15.14-33.83-23.44Zm10.85,253.07c-.11,.12-.3,.24-.29,.36,0,.31,.09,.62,.14,.93,.17-.18,.34-.36,.51-.56-.11-.21-.23-.47-.36-.73Zm-24.62-240.88c8.48,14.13,14.53,29.4,19.74,44.91,3.46,10.3,12.59,9.87,18.54,5.4,1.93-1.45,3.93-2.37,6.15-3.07,3.09-.98,7.66-1.61,7.24-5.35-.42-3.76-5.03-2.32-7.94-2.85-7.33-1.34-14.41-3.52-18.97-9.94-7.07-9.96-13.69-20.24-20.76-30.2-3.75-5.3-7.07-11.11-13.71-13.82,3.25,4.97,6.66,9.84,9.71,14.92Zm-31.19,140.75c6.55-1.53,13.19-4.34,20.32-1.02,3.24,1.51,7.13,.7,8.42-3.7,2.26-7.7,5.25-15.12,8.02-22.63,1.81-4.89,3.58-9.98,3.68-15.36,.02-1.26,.52-2.84-.9-3.63-1.74-.96-2.83,.49-3.77,1.56-5.09,5.8-8.04,12.78-10.48,19.96-2.58,7.59-8.63,12.09-15.28,14.63-7.24,2.77-12.58,8.08-19.25,11.58,3.17-.58,6.25-.69,9.24-1.39Zm-14.39-141.94c6.31,9.14,11.84,18.66,15.53,29.24,4.94,14.17,5.72,28.6,2.1,42.95-1.44,5.74-3.18,11.65-5.84,17.11-1.45,2.95-.6,4.93,2.4,6.37,2.98,1.44,4.18-.41,5.62-2.38,6.78-9.31,6.66-20.63,9.4-30.29-1.17-12.8-2.67-24.43-7.33-35.76-4.1-9.98-8.76-19.29-16.1-27.18-1.11-1.19-2.12-2.69-4.01-2.67-.8,0-1.84,.02-2.33,.49-.72,.7,.09,1.45,.56,2.12Zm-10.36,208.56c2.61,1.98,4.34,5.69,8.05,4.91,2.43-.2,4.63,.38,5.79-1.85,.47-.91,.36-1.89-.34-2.77-1.61-2.03-10.04-4.2-12.64-3.23-1.64,.61-2.22,1.91-.86,2.94Zm5.03-169.24c-.3,13.94-5.19,26.54-12.39,38.38,20.14-16.7,21.19-65.15,1.42-76.74,7.17,11.84,11.26,24.56,10.97,38.36Zm-13.98,190.77c.54,4.84,4.9,3.7,7.76,4.14,4.18,.63,6.43-1.87,6.44-6.08,.1-3.09-.53-5.81-4.28-5.97-3.16-.14-10.19,5.45-9.92,7.91Zm-29.46-202.16c.87,5.83,3.02,11.43,2.65,17.47-.35,5.93-2.4,11.52-3.56,17.29,8.05-9.41,8.53-25.94,.91-34.76Zm-39.23,16.55c.6,2.96,2.36,4.75,5.81,3.32,4.21-1.74,8.02-7.2,7.99-11.68-.03-4.72-3.65-8.39-9.11-9.43-3.7-.7-6.03,1.72-5.7,4.43,.56,4.46,.13,8.99,1.01,13.36Zm-17.54-57.25c12.45,1.46,25.01,2.37,37.05,6.19,11.82,3.75,22.38,9.74,30.83,18.99,3.9,4.27,7.47,8.84,11.29,13.19,.93,1.05,1.83,2.79,3.56,2.23,1.69-.54,2.42-2.09,2.58-3.92,.13-1.45,.41-2.78,.26-4.34-.75-7.7-4.74-13.66-9.73-19.12-14.31-15.68-32.58-21.89-57.09-22.32-5.16-.5-13.64,1.51-22,4.31-1.22,.4-2.19,.93-2.2,2.3-.01,1.31,1.13,1.48,2.08,1.74,1.11,.29,2.23,.62,3.37,.75Zm-45.99-32.78c.65,1.59,2.84,1.1,4.02,.59,8.23-3.56,17.34-2.34,25.71-4.92,3.27-1.01,6.58-.62,9.85-.97,1.56-.17,3.1-.99,3.07-2.67-.02-1.59-1.83-.92-2.81-1.33-3.2-1.32-6.56-.58-9.06-.72-10.79-.36-19.78,2.83-28.3,7.73-1.06,.61-3.19,.56-2.48,2.29Zm-67.97,134.55c-1.06-2.63,1.9-4.7,.59-7.32-4.01,6.72-5.65,18.18-4.23,28.81,2.57,19.17,20.9,32.21,40,29.29,13.25-2.02,25.65-6.51,38.14-10.9,2.26-.8,4.83-1.5,6.22-3.61-8.33-2.74-15.05,3.56-22.83,3.63-.07-1.33,.66-1.33,1.26-1.57,5.34-2.18,10.98-3.32,16.28-5.86,7.34-3.53,14.91-6.32,20.4-12.79,1.07-1.26,3.19-1.72,4.9-2.35,4.26-1.56,4.67-6.2,7.26-9.11,.91-1.03-.54-2.47-1.87-2.98-3.85-1.49-7.74-3.78-11.94-2.82-8.13,1.85-16.43,2.14-24.62,2.73-11.53,.82-23.89,3.7-33.83-4.98-5.62-4.91-13.82-6.46-17.45-13.77-.79-1.6-1.93-2.38-3.57-1.2-4.28,3.07-8.98,5.72-11.41,10.74-.78,1.6-1.51,3.17-3.3,4.06Zm-41.14,5.17c-.53,.64-.41,1.9-.43,2.88-.05,2.66-.01,5.32-.01,7.31-1.04,12.72,1.15,23.91,8.89,33.65,1.87,2.36,3.28,3.35,5.12,.19,1.47-2.51,3.78-3.53,6.56-3.95,2.88-.44,4.14-2.39,3.11-5.04-2.47-6.37-2.14-13.27-4.04-19.7-1.31-4.47-.2-9.16-1.82-13.6-2.56-6.99-9.13-.94-12.99-4.21-1.34-1.13-3.26,1.12-4.39,2.47Zm-17.3-96.39c-2.16,2.33-5.57,4.77-4.74,9.55,1.06-.7,1.76-1.08,2.37-1.57,20.22-16.06,43.79-25.45,67.78-33.95,3.17-1.13,6.71-2.45,10.17-1.06,1.67,.67,3.09,1.83,3.83-.7,.75-2.54-1.28-2.96-3.05-3.59-2.07-.73-4.05,1.54-6.67-.13,3.8-1.73,7.41-2.37,11.05-3.02,5.2-.93,10.35-2.13,14.37-5.92,1.73-1.64,3.23-3.61,2.45-6.15-.83-2.69-3.18-3.08-5.67-2.95-7.74,.4-15.29,1.6-22.68,4.13-26.96,9.23-49.91,24.56-69.21,45.36Zm-11.28,175.16c.48,.84,.87,2.1,2.05,1.74,1.51-.45,.88-1.96,.9-3.02,.04-1.98-1.71-4.25,1.09-5.7,3.09,6.04,5.51,12.56,9.41,18.03,9.99,14.01,21.73,26.33,36.93,35.01,12.41,7.09,25.7,11.09,39.89,10.83,17.66-.32,32.62-9.31,47.99-16.66,3.4-1.63,6.67-3.86,9.46-6.4,17.85-16.29,37.64-29.89,58.08-42.66,2.23-1.39,5.41-2.71,5.53-5.7,.12-2.93,1.33-4.66,3.49-6.05,3.38-2.17,4.86-5.37,5.1-9.19,.14-2.3,.81-4.32,2.51-5.78,6.04-5.16,12.17-10.23,18.28-15.31,1.36-1.13,3.74-2.19,2.51-4.13-1.04-1.63-3.23,0-4.48,.68-9.59,5.18-19.13,10.47-28.55,15.95-10.33,6.01-20.53,12.23-30.92,18.15-7.4,4.21-15.34,6.99-22.88,10.68-16.69,8.18-33.26,15.95-52.12,18.29-19.9,2.46-37.94-1.85-53.6-13.56-23.44-17.52-34.13-41.56-32.65-70.93,.11-2.08,1.96-4.25,.35-6.39-1.24,.11-1.29,.84-1.39,1.46-.68,4.41-1.44,8.81-1.96,13.24-.28,2.44,.26,6.3-2.67,5.99-2.73-.29-.86-3.76-.6-5.9,.24-1.98,1.05-4.12-.92-6.21-4.53,7.42-6.82,15.36-9.61,23.1-2.16-4.58-.82-9.44-1.09-14.16-.27-4.82-3.18-8.61-8.09-8.89-4.74-.27-4.94,3.98-5.8,7.22-.5,1.91-.9,3.88-1,5.83-1.11,21.61,4.03,41.71,14.76,60.44Zm-52.92-98.02c12.06-17.22,23.32-34.99,36.82-51.2,9.28-11.14,19.27-21.58,29.74-31.57,9.99-9.55,20.72-18.22,32.57-25.33,15.03-9.02,29.55-18.93,45.8-25.87,20.69-8.83,41.83-16.32,63.74-21.33,10.94-2.5,22.12-4.01,33.32-5.41,10.18-1.26,20.06,1.31,30.13,.3-4.63,1.21-9.44,.77-13.91,2.38,5.08,1.68,10.26,.65,15.5,.56,17.29-.31,34.6-2.08,51.81-1.59,15.22,.44,30.28,4.05,44.73,9.55,11.09,4.23,22.91,6.21,33.86,10.98,8.13,3.54,16.16,7.22,24.09,11.44-3.51,1.46-3.96,5.88-.6,8.04,6.72,4.31,13.55,8.41,19.81,13.41,2.49,1.99,7.34-1.04,8.45-4.92,6.24,.9,10.18,5.87,15.18,8.87,8.74,5.25,16.12,12.4,23.02,19.92,4.47,4.87,7.76,10.59,8.71,17.27,1.32,9.26,11.41,21.66,20.45,23.53,10.2,2.11,17.2,8.4,23.03,16.21,10.97,14.69,20.1,30.51,28,47.06,10.88,22.81,19.19,46.5,24.51,71.18,3.97,18.38,7.55,36.85,7.04,55.81,0,7.06,0,14.12-.01,21.18,.87,9.4-1.52,18.55-2.12,27.84-1.32-1.18-.77-2.77-.92-4.21-.54-5.08-1.03-10.16-1.69-15.23-.18-1.37-.39-3.36-2.45-3.1-1.99,.26-1.66,2.17-1.71,3.61-.34,9.76-.8,19.53-.96,29.29-.22,14.06-2.37,27.96-3.19,41.96,.21,1.02-.16,1.8-.96,2.42-.87-.48-.99-1.32-.85-2.15,2-12.34,2.41-24.65-.08-37.01-.45-2.23-.53-4.36-2.88-5.28-2.3-.9-3.67,.79-5.13,2.18-4.7,4.47-7.68,9.91-8.99,16.22-.46,2.21-1.37,3.82-3.38,5.05-1.37-4.05-1.52-7.92-1.98-12.97-2.81,7.08-5.01,13.34-3.48,19.46,3.57,14.38,.71,28.97,2.12,43.45,.88,9.06,1.87,18.82-.34,28.16-1.29,4.49-2.49,9.02-4.78,13.15-5.69-2.9-7.17,2.78-9.78,5.25-5.47,5.19-12.92,3.78-15.57-3.42-1.81-4.94-3.97-9.76-5.59-14.76-1.22-3.77-3.33-3.53-6.14-2.2-2.13,1-3.22,2.83-3.98,4.9-2.7,7.33-5.28,14.7-8.08,21.99-4.08,10.62-8.01,21.32-13.85,31.22,.56-5.29,1.06-10.58,2.36-15.67,5.03-19.7,4.15-39.53,1.27-59.31-2.91-19.93-8.95-39.3-11.41-59.35-.92-7.55-2.56-15.02-3.31-22.58-1.3-13.15-1.9-26.36-3.36-39.48-.41-3.72-.12-7.67-1.78-11.25-.82-1.78-1.15-4.05-3.65-4.23-2.7-.2-4.29,1.43-5.27,3.77-1.95,4.64-3.04,9.4-3.12,14.5-.07,4.27,.45,9.4-1.67,12.57-2.64,3.95-3.2,7.73-3.11,11.88,.31,14.65-.73,29.23-2.33,43.76-2.11,19.1-4.4,38.19-6.94,57.24-1.63,12.29-5.92,23.83-11.62,34.79-.67,1.3-1.19,4.73-3.85,3.26-1.98-1.08-4.91-2.34-3.48-6.14,.77-2.05,.71-4.66-.32-6.86-3.04-6.52-1.81-14.02,.23-19.43,3.03-8.05,3.61-16.43,6.2-24.43,3.01-9.29,3.5-19.2,5.5-28.69,2.64-12.56,3.62-25.16,4.7-37.85,.49-5.8,.61-11.6,1.03-17.39,1.18-16.26,1.46-32.51-.22-48.76-.22-2.12-.03-4.83-2.84-5.1-2.86-.27-4.09,2.07-5.21,4.48-2.65,5.74-1.91,11.97-2.94,17.93-.69,3.93-1.02,7.91-1.61,12.62-2.86-3.13,1.24-6.35-1.87-9.07-.91,5.17-1.13,9.92-1.72,14.63-1.68,13.62-3.84,27.19-5.77,40.78-2.09,14.66-5.91,28.89-10.49,42.94-.65,1.98-1.7,3.56-4.23,3.49-2.18-.05-3.78-.39-4.55-2.88-.83-2.67-2.71-2.66-4.56-.84-1.18,1.16-2.28,2.42-3.24,3.77-5.76,8.06-10.87,16.57-17.53,24.02-10.55,11.81-21.37,23.25-35.36,31.07-5.62,3.14-11.49,5.85-17.25,8.76-.15-2.08,.22-3.21,.91-4.09,9.66-12.28,17.05-26.09,25.97-38.84,4.5-6.43,7.48-14.5,15.59-18.04,1.33-.58,2.67-2.05,2.67-3.98h.01c.76-.09,1.57-.14,1.51-1.23-.01-.11-.2-.31-.31-.32-1.11-.04-1.09,.81-1.2,1.55h-.01c-2.19-2.13-1.28-4.26,2.98-6.98v.02l.04-.04c.35,1.2-1.46,2.32-.12,3.66,1.54-.14,1.89-3.84,4.27-1.42,2.97,3.01,6.44,2.06,9.67,.74,6.23-2.54,8.76-8.73,12.36-13.64,5.34-7.31,6.83-16.32,8.89-24.94,2.58-10.78,5.17-21.53,6.34-32.65,1.74-16.65,3.68-33.27,3.5-50.05-.01-1.06,.59-2.73-.9-3.01-1.86-.35-1.52,1.6-2.13,2.66-1.81,3.15-.77,7.56-3.87,9.95-5.02,3.85-7.1,8.82-7.03,14.95,.02,1.15,.39,2.74-.65,3.29-4.15,2.19-3.77,6.15-4.34,9.85-1.08,7.04-2.4,14.04-3.56,21.06-1.71,10.34-4.73,20.3-8.26,30.16-3.7,10.34-7.83,20.39-14.19,29.4t-.02,.01c1.43-6.47,2.86-12.95,4.31-19.42,.36-1.64,3.69-2.65,1.8-4.48-1.82-1.75-4.32,.09-6.44,.7-1.85,.53-2.86,2.1-3.91,3.66-4.41,6.58-8.58,13.37-13.5,19.56-16.76,21.12-37.78,36.3-63.78,44.13-4.87,1.47-9.63,3.84-15.76,3.18,1.8-2.61,3.59-4.17,5.58-5.68,8.35-6.34,16.24-13.13,23.09-21.18,2.57-3.02,3.87-6.95,7.3-9.32,4.29-2.97,7.32-7.12,10.18-11.46,6.14-9.31,10.63-19.52,16.33-29.07,3.31-5.56,3.12-5.63-2.83-7.06-2.42-.57-4.83-1.23-7.17-2.05-1.72-.6-3.48-.8-4.74,.4-4.3,4.07-10.41,5.45-14.6,9.22-5.66,5.07-11.61,9.32-18.52,12.32-10.86,4.71-21.85,7.66-33.64,3.34-6.2-2.27-10.86-7.61-9.42-11.86,2.47-7.36,4.4-14.08,13.78-17.55,10.71-3.97,21.59-6.25,32.55-8.06,6.01-.99,10.69-2.67,14.69-7.06,3.71-4.08,3.78-7.64,.1-14.5-2.38-4.43-5.83-5.58-10.72-4.89-9.06,1.29-17.17,4.7-24.65,9.8-2.71,1.85-6.47,2.17-8.29,5.25-2.24,3.81-6.07,5.36-9.48,7.69-5.93,4.07-12.95,6.16-18.66,10.07-8.27,5.66-17.61,7.42-26.66,10.33-9.22,2.97-18.1,6.83-26.33,11.71-2.92,1.73-5.37,3.28-8.7,3.44-.77,.04-1.62,.9-2.29,.08-.77-.95,.06-1.79,.47-2.69,2.59-5.69,6.88-10.18,10.74-14.91,7.22-8.88,13.55-18.58,22.41-26,8.43-7.06,16.71-14.29,24.01-22.48,11.53-12.91,23.98-24.68,37.95-34.97,14.99-11.04,30.6-20.62,48.98-24.77,20.77-4.7,33,2.21,40.03,22.45,4.12,11.84,4.04,24.14,3.97,36.44-.12,20.91-5.94,40.25-16,58.44-1.48,2.68-4.43,4.63-4.14,8.21l-.02,.02c-.08,.14-.15,.28-.23,.42,.08-.13,.17-.26,.25-.39v-.05c8.33-9.14,13.24-20.13,16.96-31.72,1.19-3.72,1.99-7.56,2.98-11.34,.67,5.6-1.17,10.61-2.47,15.7-.7,2.78-.47,5.19,1.66,6.75,2.49,1.81,4.85,.09,6.66-1.65,5.11-4.92,8.01-11.27,10.17-17.8,3.12-9.45,4.46-19.27,5.27-29.24,1.93-23.89,1.82-47.59-7.37-70.15-7.73-18.99-19.79-25.04-38.97-21.8-16.04,2.7-30.5,9.94-44.86,17.28-21.79,11.13-41.97,24.85-62.03,38.73-14.64,10.14-29.46,19.9-45.6,27.49-18.02,8.47-36.78,12.49-56.57,7.69-14.2-3.44-27.7-8.33-39.5-17.62-17.12-13.48-33.89-26.97-45.54-46.01-15.87-25.93-23.2-53.44-18.77-83.76,.42-2.83,1.73-5.63,.46-9.19-3.31,6.04-6.05,11.82-9.51,17.15-4.57,7.05-5.18,14.41-4.13,22.53,.71,5.43,.84,11.35-1.67,16.47-2.59,5.3-2.05,10.48-1.58,16,.55,6.55,2.1,12.87,3.08,19.26,1.03,6.75,1.82,13.4,4.18,19.85,.43,1.19,1.64,2.59,.47,4.11-1.82,.01-2.06-1.57-2.69-2.62-7.49-12.48-13.08-25.8-16.82-39.85-4.76-17.84-5.66-35.96-4.09-54.33,.78-9.1,2.4-18.07,3.24-27.14,.31-3.26,1.64-7.77-4.65-6.61-.03,.01-.12-.29-.18-.45Zm498.43,97.45l-.09-.39-.16,.37,.25,.02Zm-50.84-39.96c7.88-15.85,18.76-29.86,27.08-45.36-10.52,14.27-22.69,27.57-27.08,45.36ZM155.99,76.14q3.6-.32,5.97-4.49c-3.22,.83-4.71,2.29-5.97,4.49Z"/><path class="d" d="M99.07,210.87c2.79-7.74,5.08-15.68,9.61-23.1,1.97,2.09,1.16,4.23,.92,6.21-.26,2.14-2.13,5.61,.6,5.9,2.93,.31,2.39-3.55,2.67-5.99,.52-4.43,1.28-8.83,1.96-13.24,.1-.62,.15-1.35,1.39-1.46,1.61,2.14-.24,4.31-.35,6.39-1.48,29.37,9.21,53.41,32.65,70.93,15.66,11.71,33.7,16.02,53.6,13.56,18.86-2.34,35.43-10.11,52.12-18.29,7.54-3.69,15.48-6.47,22.88-10.68,10.39-5.92,20.59-12.14,30.92-18.15,9.42-5.48,18.96-10.77,28.55-15.95,1.25-.68,3.44-2.31,4.48-.68,1.23,1.94-1.15,3-2.51,4.13-6.11,5.08-12.24,10.15-18.28,15.31-1.7,1.46-2.37,3.48-2.51,5.78-.24,3.82-1.72,7.02-5.1,9.19-2.16,1.39-3.37,3.12-3.49,6.05-.12,2.99-3.3,4.31-5.53,5.7-20.44,12.77-40.23,26.37-58.08,42.66-2.79,2.54-6.06,4.77-9.46,6.4-15.37,7.35-30.33,16.34-47.99,16.66-14.19,.26-27.48-3.74-39.89-10.83-15.2-8.68-26.94-21-36.93-35.01-3.9-5.47-6.32-11.99-9.41-18.03-.03-.37-.06-.75-.08-1.12,0-.92-.35-1.53-1.35-1.59-3.47-12.12-4.42-24.38-2.13-36.83,.69-.65,.76-1.43,.54-2.29,.06-.54,.13-1.08,.2-1.63Z"/><path class="d" d="M106.76,94.13c-.61,.49-1.31,.87-2.37,1.57-.83-4.78,2.58-7.22,4.74-9.55,19.3-20.8,42.25-36.13,69.21-45.36,7.39-2.53,14.94-3.73,22.68-4.13,2.49-.13,4.84,.26,5.67,2.95,.78,2.54-.72,4.51-2.45,6.15-4.02,3.79-9.17,4.99-14.37,5.92-3.64,.65-7.25,1.29-11.05,3.02,2.62,1.67,4.6-.6,6.67,.13,1.77,.63,3.8,1.05,3.05,3.59-.74,2.53-2.16,1.37-3.83,.7-3.46-1.39-7-.07-10.17,1.06-23.99,8.5-47.56,17.89-67.78,33.95Z"/><path class="b" d="M100.46,251.62c1,.06,1.35,.67,1.35,1.59l-1.35-1.59Z"/><path class="b" d="M98.87,212.5c.22,.86,.15,1.64-.54,2.29-.54-.93-.31-1.68,.54-2.29Z"/><path class="b" d="M89.89,187.82c4.91,.28,7.82,4.07,8.09,8.89,.27,4.72-1.07,9.58,1.09,14.16-.07,.55-.14,1.09-.2,1.63-.85,.61-1.08,1.36-.54,2.29-2.29,12.45-1.34,24.71,2.13,36.83l1.35,1.59c.02,.37,.05,.75,.08,1.12-2.8,1.45-1.05,3.72-1.09,5.7-.02,1.06,.61,2.57-.9,3.02-1.18,.36-1.57-.9-2.05-1.74-10.73-18.73-15.87-38.83-14.76-60.44,.1-1.95,.5-3.92,1-5.83,.86-3.24,1.06-7.49,5.8-7.22Z"/><path class="d" d="M454.32,464.32c1.79-.48,2.23-1.58,1.97-3.88-1.71,1.24-2.51,2.18-1.97,3.88Zm-1.03,1.55l-.16,.24,.25,.03-.09-.27ZM45.11,163.74c6.29-1.16,4.96,3.35,4.65,6.61-.84,9.07-2.46,18.04-3.24,27.14-1.57,18.37-.67,36.49,4.09,54.33,3.74,14.05,9.33,27.37,16.82,39.85,.63,1.05,.87,2.63,2.69,2.62,1.17-1.52-.04-2.92-.47-4.11-2.36-6.45-3.15-13.1-4.18-19.85-.98-6.39-2.53-12.71-3.08-19.26-.47-5.52-1.01-10.7,1.58-16,2.51-5.12,2.38-11.04,1.67-16.47-1.05-8.12-.44-15.48,4.13-22.53,3.46-5.33,6.2-11.11,9.51-17.15,1.27,3.56-.04,6.36-.46,9.19-4.43,30.32,2.9,57.83,18.77,83.76,11.65,19.04,28.42,32.53,45.54,46.01,11.8,9.29,25.3,14.18,39.5,17.62,19.79,4.8,38.55,.78,56.57-7.69,16.14-7.59,30.96-17.35,45.6-27.49,20.06-13.88,40.24-27.6,62.03-38.73,14.36-7.34,28.82-14.58,44.86-17.28,19.18-3.24,31.24,2.81,38.97,21.8,9.19,22.56,9.3,46.26,7.37,70.15-.81,9.97-2.15,19.79-5.27,29.24-2.16,6.53-5.06,12.88-10.17,17.8-1.81,1.74-4.17,3.46-6.66,1.65-2.13-1.56-2.36-3.97-1.66-6.75,1.3-5.09,3.14-10.1,2.47-15.7-.99,3.78-1.79,7.62-2.98,11.34-3.72,11.59-8.63,22.58-16.96,31.72-.29-3.58,2.66-5.53,4.14-8.21,10.06-18.19,15.88-37.53,16-58.44,.07-12.3,.15-24.6-3.97-36.44-7.03-20.24-19.26-27.15-40.03-22.45-18.38,4.15-33.99,13.73-48.98,24.77-13.97,10.29-26.42,22.06-37.95,34.97-7.3,8.19-15.58,15.42-24.01,22.48-8.86,7.42-15.19,17.12-22.41,26-3.86,4.73-8.15,9.22-10.74,14.91-.41,.9-1.24,1.74-.47,2.69,.67,.82,1.52-.04,2.29-.08,3.33-.16,5.78-1.71,8.7-3.44,8.23-4.88,17.11-8.74,26.33-11.71,9.05-2.91,18.39-4.67,26.66-10.33,5.71-3.91,12.73-6,18.66-10.07,3.41-2.33,7.24-3.88,9.48-7.69,1.82-3.08,5.58-3.4,8.29-5.25,7.48-5.1,15.59-8.51,24.65-9.8,4.89-.69,8.34,.46,10.72,4.89,3.68,6.86,3.61,10.42-.1,14.5-4,4.39-8.68,6.07-14.69,7.06-10.96,1.81-21.84,4.09-32.55,8.06-9.38,3.47-11.31,10.19-13.78,17.55-1.44,4.25,3.22,9.59,9.42,11.86,11.79,4.32,22.78,1.37,33.64-3.34,6.91-3,12.86-7.25,18.52-12.32,4.19-3.77,10.3-5.15,14.6-9.22,1.26-1.2,3.02-1,4.74-.4,2.34,.82,4.75,1.48,7.17,2.05,5.95,1.43,6.14,1.5,2.83,7.06-5.7,9.55-10.19,19.76-16.33,29.07-2.86,4.34-5.89,8.49-10.18,11.46-3.43,2.37-4.73,6.3-7.3,9.32-6.85,8.05-14.74,14.84-23.09,21.18-1.99,1.51-3.78,3.07-5.58,5.68,6.13,.66,10.89-1.71,15.76-3.18,26-7.83,47.02-23.01,63.78-44.13,4.92-6.19,9.09-12.98,13.5-19.56,1.05-1.56,2.06-3.13,3.91-3.66,2.12-.61,4.62-2.45,6.44-.7,1.89,1.83-1.44,2.84-1.8,4.48-1.45,6.47-2.88,12.95-4.31,19.42-4.26,2.72-5.17,4.85-2.98,6.98,0,1.93-1.34,3.4-2.67,3.98-8.11,3.54-11.09,11.61-15.59,18.04-8.92,12.75-16.31,26.56-25.97,38.84-.69,.88-1.06,2.01-.91,4.09,5.76-2.91,11.63-5.62,17.25-8.76,13.99-7.82,24.81-19.26,35.36-31.07,6.66-7.45,11.77-15.96,17.53-24.02,.96-1.35,2.06-2.61,3.24-3.77,1.85-1.82,3.73-1.83,4.56,.84,.77,2.49,2.37,2.83,4.55,2.88,2.53,.07,3.58-1.51,4.23-3.49,4.58-14.05,8.4-28.28,10.49-42.94,1.93-13.59,4.09-27.16,5.77-40.78,.59-4.71,.81-9.46,1.72-14.63,3.11,2.72-.99,5.94,1.87,9.07,.59-4.71,.92-8.69,1.61-12.62,1.03-5.96,.29-12.19,2.94-17.93,1.12-2.41,2.35-4.75,5.21-4.48,2.81,.27,2.62,2.98,2.84,5.1,1.68,16.25,1.4,32.5,.22,48.76-.42,5.79-.54,11.59-1.03,17.39-1.08,12.69-2.06,25.29-4.7,37.85-2,9.49-2.49,19.4-5.5,28.69-2.59,8-3.17,16.38-6.2,24.43-2.04,5.41-3.27,12.91-.23,19.43,1.03,2.2,1.09,4.81,.32,6.86-1.43,3.8,1.5,5.06,3.48,6.14,2.66,1.47,3.18-1.96,3.85-3.26,5.7-10.96,9.99-22.5,11.62-34.79,2.54-19.05,4.83-38.14,6.94-57.24,1.6-14.53,2.64-29.11,2.33-43.76-.09-4.15,.47-7.93,3.11-11.88,2.12-3.17,1.6-8.3,1.67-12.57,.08-5.1,1.17-9.86,3.12-14.5,.98-2.34,2.57-3.97,5.27-3.77,2.5,.18,2.83,2.45,3.65,4.23,1.66,3.58,1.37,7.53,1.78,11.25,1.46,13.12,2.06,26.33,3.36,39.48,.75,7.56,2.39,15.03,3.31,22.58,2.46,20.05,8.5,39.42,11.41,59.35,2.88,19.78,3.76,39.61-1.27,59.31-1.3,5.09-1.8,10.38-2.36,15.67,5.84-9.9,9.77-20.6,13.85-31.22,2.8-7.29,5.38-14.66,8.08-21.99,.76-2.07,1.85-3.9,3.98-4.9,2.81-1.33,4.92-1.57,6.14,2.2,1.62,5,3.78,9.82,5.59,14.76,2.65,7.2,10.1,8.61,15.57,3.42,2.61-2.47,4.09-8.15,9.78-5.25-.9,5.22-4.03,9.41-6.61,13.8-7.6,12.93-16.64,24.86-26.4,36.21-7.84,9.11-16.8,16.83-29.3,18.95-2.86,.49-5,2.17-6.82,4.58-7.3,9.69-14.79,19.24-22.18,28.86-4.57,5.94-10.84,8.61-18.05,9.31-5.77,.56-11.58,.35-17.39,.79-3.23,.25-5.14,1.29-7.16,3.17-8.02,7.49-15.65,15.41-24.71,21.74-15.19,10.64-32.53,15.42-50.45,18.41-12.15,2.02-24.42,3.09-36.74,1.13-3.33-.52-6.51-.08-9.75,1.11-9.54,3.51-19.43,5.7-29.54,6.51-10.27,.81-20.16-1.22-29.58-5.34-3.01-1.32-5.8-1.51-9.08-.58-12.94,3.68-24.5-.26-35.27-7.29-3.11-2.04-5.95-2.57-9.75-1.84-7.71,1.48-15.09-.35-21.86-4.4-3.99-2.39-7.96-4.82-11.97-7.16-8.12-4.73-15.69-10.32-25.28-12.43-6.25-1.37-12.52-4.46-16.91-9.18-7.8-8.37-18.1-12.11-27.88-16.85-5.06-2.46-9.9-5.17-14.54-8.29-5.55-3.74-9.22-8.67-9.29-15.61-.04-2.97-1.17-4.32-4.13-5.11-4.46-1.19-8.81-2.86-12.89-5.15-7.69-4.33-12.17-10.24-11.54-19.7,.79-11.94,.58-12.23-10.95-16.01-11.84-3.88-19.91-11.34-22.95-23.39-3.35-13.25-9.82-24.9-16.74-36.47-9.39-15.71-17.7-31.92-20.74-50.26-.78-4.74-1.94-9.55-1.78-14.3,.39-12.24-5-23.21-6.93-34.93-2.53-15.46-1.6-30.85,.38-46.21,.91-7.15-.03-14.24,.48-21.38,2.02-28.7,9.6-56.01,19.89-82.68,5.88-15.25,13.14-29.8,22.39-43.32,.06,.16,.15,.46,.18,.45ZM459.58,487.35c1.21-6.15-.68-11.2-5.07-16.29-3.4-3.95-3.99-3.23-6.32,.15-1.76,2.57-3.88,5.17-6.85,6.41-3.61,1.51-5.77,4.38-7.65,7.44-6.91,11.24-13.75,22.53-20.45,33.9-2.23,3.79-5.15,7.3-6.12,12.44,14.8-3.19,26.02-11.59,37.12-20.09,2.59-1.98,4.49-4.87,6.63-7.4,4.12-4.88,7.48-10.28,8.71-16.56Z"/></svg>